# xmcd
#
# Track frame offsets:
#	150
#	13814
#	24212
#	41214
#	57550
#	69707
#	82268
#	99323
#	111320
#	126974
#	139174
#	156169
#	168172
#	183223
#	195543
#	211924
#	226681
#	241999
#	257485
#	271629
#	284993
#
# Disc length: 3973 seconds
#
# Revision: 1
# Processed by: cddbd v1.5.2PL0 Copyright (c) Steve Scherf et al.
# Submitted via: audiograbber 1.83.01
#
DISCID=2c0f8315
DTITLE=Mitch Snow - Ballads, Blues and Texas Treats
DYEAR=2009
DGENRE=Country
TTITLE0=When In Texas
TTITLE1=Abilene Abilene
TTITLE2=Hey Ballerina
TTITLE3=Hello Blues
TTITLE4=Tell Me What Is Wrong (And I'll Help You Make It Right)
TTITLE5=Texarkana Baby
TTITLE6=I Can't Fall Out of Love With You (As Fast as I Fell In)
TTITLE7=I Need Lovin' in My Life
TTITLE8=Corpus Christi Bay Laid-Back Baby
TTITLE9=Baby in L.A.
TTITLE10=Baby Let's Go Crazy
TTITLE11=Intimate Strangers
TTITLE12=Tequila Bay
TTITLE13=Makin' Love to You (Ain't Love Anymore)
TTITLE14=Baby Girl (The Wedding Song)
TTITLE15=San Angelo
TTITLE16=Our Movie Is Over
TTITLE17=Toodle OO Bad Luck Blues
TTITLE18=Country USA
TTITLE19=2062
TTITLE20=Good Morning and Goodbye Blues
EXTD=
EXTT0=
EXTT1=
EXTT2=
EXTT3=
EXTT4=
EXTT5=
EXTT6=
EXTT7=
EXTT8=
EXTT9=
EXTT10=
EXTT11=
EXTT12=
EXTT13=
EXTT14=
EXTT15=
EXTT16=
EXTT17=
EXTT18=
EXTT19=
EXTT20=
PLAYORDER=
